<svg width="178" height="70" viewBox="0 0 178 70" fill="none" xmlns="http://www.w3.org/2000/svg">
<g opacity="0.3">
<path fill-rule="evenodd" clip-rule="evenodd" d="M110.218 58.199C99.975 65.7561 85.127 69.7791 72.34 69.7791C54.416 69.7791 38.2806 63.1566 26.0693 52.1274C25.11 51.2609 25.9641 50.0788 27.1215 50.7472C40.2983 58.4157 56.5946 63.0328 73.4231 63.0328C84.7742 63.0328 97.2579 60.6747 108.739 55.8038C110.472 55.0673 111.92 56.9426 110.231 58.199H110.218Z" fill="white"/>
<path fill-rule="evenodd" clip-rule="evenodd" d="M114.476 53.3343C113.164 51.657 105.818 52.5359 102.513 52.932C101.51 53.0496 101.355 52.1769 102.259 51.5456C108.12 47.4298 117.732 48.6181 118.846 49.9921C119.972 51.3847 118.549 61.0152 113.059 65.6138C112.211 66.3193 111.413 65.9418 111.784 65.0072C113.022 61.9188 115.788 55.0054 114.476 53.3281V53.3343Z" fill="white"/>
<path fill-rule="evenodd" clip-rule="evenodd" d="M102.748 22.4562V18.4518C102.748 17.8452 103.212 17.4367 103.763 17.4367H121.699C122.275 17.4367 122.733 17.8514 122.733 18.4456V21.8744C122.733 22.45 122.244 23.1989 121.384 24.3934L112.093 37.657C115.541 37.5765 119.193 38.0902 122.324 39.8542C123.03 40.2503 123.222 40.8382 123.277 41.4138V45.6844C123.277 46.2724 122.634 46.9532 121.959 46.6004C116.438 43.7101 109.11 43.3944 103.008 46.6376C102.383 46.9718 101.733 46.2972 101.733 45.7092V41.649C101.733 40.9992 101.745 39.8913 102.401 38.901L113.164 23.4589H103.794C103.218 23.4589 102.76 23.0504 102.76 22.45L102.748 22.4562ZM37.3275 47.4483H31.8686C31.3487 47.4174 30.934 47.0213 30.8907 46.5262V18.5199C30.8907 17.9566 31.3673 17.511 31.9491 17.511H37.0304C37.5627 17.5358 37.9898 17.9381 38.0207 18.4518V22.1096H38.1259C39.4504 18.5756 41.9447 16.923 45.3054 16.923C48.6662 16.923 50.8572 18.5756 52.3859 22.1096C53.7104 18.5756 56.7122 16.923 59.9244 16.923C62.2144 16.923 64.7149 17.8638 66.2374 19.9867C67.9704 22.3448 67.6114 25.7613 67.6114 28.7692V46.4395C67.6114 46.9965 67.1349 47.4483 66.5531 47.4483H61.1004C60.5557 47.4112 60.1225 46.978 60.1225 46.4457V31.5977C60.1225 30.4218 60.2215 27.4695 59.9677 26.3554C59.5592 24.4677 58.34 23.9416 56.7617 23.9416C55.4372 23.9416 54.0632 24.8267 53.5 26.2378C52.9368 27.6552 52.9925 30.0071 52.9925 31.5977V46.4395C52.9925 46.9965 52.5221 47.4483 51.9403 47.4483H46.4876C45.9429 47.4112 45.5097 46.978 45.5097 46.4457V31.5977C45.5097 28.4722 46.011 23.8797 42.1427 23.8797C38.2745 23.8797 38.3735 28.3607 38.3735 31.5977V46.4395C38.3735 46.9965 37.9031 47.4483 37.3213 47.4483H37.3275ZM138.175 16.923C146.27 16.923 150.652 23.8797 150.652 32.718C150.652 41.5562 145.812 48.0425 138.175 48.0425C130.537 48.0425 125.902 41.0858 125.902 32.4271C125.902 23.7683 130.284 16.9292 138.175 16.9292V16.923ZM138.224 22.6419C134.201 22.6419 133.948 28.1194 133.948 31.542C133.948 34.9647 133.898 42.268 138.175 42.268C142.452 42.268 142.606 36.3758 142.606 32.7799C142.606 30.4218 142.507 27.5933 141.789 25.3528C141.177 23.4094 139.957 22.6419 138.224 22.6419ZM161.156 47.4483H155.721C155.177 47.4112 154.744 46.978 154.744 46.4457V18.427C154.781 17.9133 155.232 17.511 155.783 17.511H160.846C161.323 17.5358 161.713 17.8576 161.818 18.297V22.58H161.923C163.452 18.7489 165.587 16.923 169.356 16.923C171.801 16.923 174.196 17.8081 175.725 20.2219C177.149 22.4624 177.149 26.2316 177.149 28.9425V46.5633C177.087 47.0584 176.641 47.4483 176.103 47.4483H170.631C170.124 47.4174 169.721 47.046 169.66 46.5633V31.3563C169.66 28.2927 170.019 23.8117 166.249 23.8117C164.925 23.8117 163.699 24.6967 163.093 26.0522C162.332 27.7604 162.226 29.4686 162.226 31.3563V46.4333C162.214 46.9903 161.744 47.4422 161.162 47.4422L161.156 47.4483ZM88.4506 34.0734C88.4506 36.2025 88.5001 37.9726 87.4294 39.8603C86.5629 41.3953 85.1827 42.3422 83.654 42.3422C81.562 42.3422 80.3365 40.7454 80.3365 38.3873C80.3365 33.7392 84.5081 32.8975 88.4506 32.8975V34.0796V34.0734ZM93.9528 47.3741C93.5939 47.6959 93.074 47.7207 92.6655 47.5041C90.852 46.0001 90.5302 45.3007 89.5399 43.871C86.5443 46.9223 84.4214 47.8383 80.5408 47.8383C75.9484 47.8383 72.371 45.0036 72.371 39.3343C72.371 34.9028 74.7724 31.8948 78.1888 30.4156C81.1473 29.1158 85.2817 28.8806 88.4506 28.5279V27.8223C88.4506 26.5225 88.5558 24.9876 87.7884 23.8674C87.1261 22.8647 85.8511 22.45 84.7247 22.45C82.6451 22.45 80.7945 23.5146 80.3365 25.7241C80.2437 26.2131 79.8847 26.702 79.3896 26.7268L74.104 26.1574C73.6583 26.0583 73.1632 25.6994 73.287 25.0186C74.5001 18.6003 80.2994 16.6631 85.486 16.6631C88.1411 16.6631 91.6133 17.3687 93.7053 19.3802C96.3604 21.862 96.1067 25.1671 96.1067 28.7692V37.2671C96.1067 39.8232 97.1712 40.9435 98.1677 42.3237C98.5143 42.8188 98.5948 43.413 98.1491 43.7719C97.0351 44.7065 95.0545 46.4271 93.9652 47.3988L93.9528 47.3865V47.3741ZM16.9216 34.0734C16.9216 36.2025 16.9711 37.9726 15.9004 39.8603C15.0339 41.3953 13.6537 42.3422 12.1249 42.3422C10.033 42.3422 8.8075 40.7454 8.8075 38.3873C8.8075 33.7392 12.979 32.8975 16.9216 32.8975V34.0796V34.0734ZM22.4238 47.3741C22.0648 47.6959 21.5388 47.7207 21.1365 47.5041C19.323 46.0001 19.0012 45.3007 18.0109 43.871C15.0153 46.9223 12.8924 47.8383 9.01794 47.8383C4.42552 47.8383 0.848145 45.0036 0.848145 39.3343C0.848145 34.9028 3.24957 31.8948 6.66603 30.4156C9.62448 29.1158 13.7589 28.8806 16.9278 28.5279V27.8223C16.9278 26.5225 17.0268 24.9876 16.2655 23.8674C15.6033 22.8647 14.3283 22.45 13.2019 22.45C11.1223 22.45 9.2717 23.5146 8.81369 25.7241C8.72085 26.2131 8.36188 26.702 7.86674 26.7268L2.58113 26.1574C2.13551 26.0583 1.64037 25.6994 1.76415 25.0186C2.97724 18.6003 8.77037 16.6631 13.9631 16.6631C16.6183 16.6631 20.0905 17.3687 22.1824 19.3802C24.8376 21.862 24.5839 25.1671 24.5839 28.7692V37.2671C24.5839 39.8232 25.6484 40.9435 26.6449 42.3237C26.9915 42.8188 27.0719 43.413 26.6263 43.7719C25.5123 44.7065 23.5317 46.4271 22.4424 47.3988L22.43 47.3865L22.4238 47.3741Z" fill="white"/>
</g>
</svg>
