<svg width="86" height="87" viewBox="0 0 86 87" fill="none" xmlns="http://www.w3.org/2000/svg">
<g clip-path="url(#clip0_29_12897)">
<rect x="0.0507812" y="0.852539" width="85.6417" height="85.6417" rx="22.5373" fill="url(#paint0_linear_29_12897)"/>
<g filter="url(#filter0_f_29_12897)">
<circle cx="42.7456" cy="1.30179" r="6.95267" fill="white"/>
</g>
<g filter="url(#filter1_di_29_12897)">
<path d="M23.8119 50.9199H12.0756C11.6738 50.9209 11.2807 50.8023 10.9465 50.5791C10.6123 50.356 10.352 50.0384 10.1989 49.6669C10.0446 49.2966 10.0039 48.8887 10.0818 48.4951C10.1597 48.1016 10.3528 47.74 10.6366 47.4564L18.7699 39.3231H12.9428C12.1737 39.3231 11.4362 39.0176 10.8923 38.4738C10.3485 37.9299 10.043 37.1923 10.043 36.4233H20.8682C21.6917 36.4233 22.4276 36.9157 22.745 37.6762C22.8989 38.0468 22.9392 38.4548 22.8608 38.8484C22.7824 39.242 22.5887 39.6034 22.3045 39.8867L14.1739 48.0227H20.9147C22.5152 48.0227 23.8146 49.3222 23.8146 50.9226L23.8119 50.9199ZM75.7004 41.8619C75.7004 38.7431 73.1644 36.2099 70.0484 36.2099C68.3796 36.2099 66.8804 36.9348 65.8436 38.0866C65.3145 37.4958 64.6668 37.0234 63.9428 36.7C63.2187 36.3766 62.4345 36.2096 61.6415 36.2099C58.5228 36.2099 55.9895 38.7431 55.9895 41.8619V50.9199C56.7586 50.9199 57.4962 50.6144 58.04 50.0705C58.5839 49.5267 58.8894 48.7891 58.8894 48.02V41.8619C58.8894 41.1316 59.1795 40.4312 59.6959 39.9149C60.2123 39.3985 60.9126 39.1084 61.6429 39.1084C62.3732 39.1084 63.0735 39.3985 63.5899 39.9149C64.1063 40.4312 64.3964 41.1316 64.3964 41.8619V48.02C64.3964 49.6231 65.6931 50.9199 67.2963 50.9199V41.8619C67.2963 41.132 67.5862 40.4319 68.1024 39.9158C68.6185 39.3997 69.3185 39.1097 70.0484 39.1097C70.7783 39.1097 71.4783 39.3997 71.9945 39.9158C72.5106 40.4319 72.8006 41.132 72.8006 41.8619V48.02C72.8006 49.6231 74.1 50.9199 75.7004 50.9199V41.8619ZM54.5396 43.6729C54.5396 44.6532 54.3465 45.6238 53.9714 46.5294C53.5963 47.4351 53.0464 48.2579 52.3533 48.9511C51.6602 49.6442 50.8373 50.194 49.9317 50.5692C49.026 50.9443 48.0554 51.1374 47.0751 51.1374C46.0949 51.1374 45.1243 50.9443 44.2186 50.5692C43.313 50.194 42.4901 49.6442 41.797 48.9511C41.1039 48.2579 40.554 47.4351 40.1789 46.5294C39.8038 45.6238 39.6107 44.6532 39.6107 43.6729C39.6107 41.6932 40.3971 39.7946 41.797 38.3948C43.1968 36.9949 45.0955 36.2085 47.0751 36.2085C49.0548 36.2085 50.9534 36.9949 52.3533 38.3948C53.7531 39.7946 54.5396 41.6932 54.5396 43.6729ZM51.6397 43.6729C51.6397 42.462 51.1587 41.3006 50.3024 40.4443C49.4461 39.5881 48.2847 39.107 47.0738 39.107C45.8628 39.107 44.7015 39.5881 43.8452 40.4443C42.9889 41.3006 42.5078 42.462 42.5078 43.6729C42.5078 44.8839 42.9889 46.0453 43.8452 46.9015C44.7015 47.7578 45.8628 48.2389 47.0738 48.2389C48.2847 48.2389 49.4461 47.7578 50.3024 46.9015C51.1587 46.0453 51.6397 44.8839 51.6397 43.6729ZM38.4535 43.6729C38.4535 44.6534 38.2604 45.6242 37.8852 46.53C37.51 47.4358 36.9601 48.2588 36.2668 48.952C35.5736 49.6453 34.7505 50.1952 33.8447 50.5704C32.9389 50.9456 31.9681 51.1387 30.9877 51.1387C30.0073 51.1387 29.0365 50.9456 28.1307 50.5704C27.2249 50.1952 26.4018 49.6453 25.7086 48.952C25.0153 48.2588 24.4654 47.4358 24.0902 46.53C23.715 45.6242 23.5219 44.6534 23.5219 43.6729C23.5219 41.6932 24.3083 39.7946 25.7082 38.3948C27.108 36.9949 29.0066 36.2085 30.9863 36.2085C32.966 36.2085 34.8646 36.9949 36.2645 38.3948C37.6643 39.7946 38.4508 41.6932 38.4508 43.6729H38.4535ZM35.5536 43.6729C35.5536 42.462 35.0726 41.3006 34.2163 40.4443C33.36 39.5881 32.1987 39.107 30.9877 39.107C29.7767 39.107 28.6154 39.5881 27.7591 40.4443C26.9028 41.3006 26.4218 42.462 26.4218 43.6729C26.4218 44.8839 26.9028 46.0453 27.7591 46.9015C28.6154 47.7578 29.7767 48.2389 30.9877 48.2389C32.1987 48.2389 33.36 47.7578 34.2163 46.9015C35.0726 46.0453 35.5536 44.8839 35.5536 43.6729Z" fill="white" fill-opacity="0.6" shape-rendering="crispEdges"/>
</g>
</g>
<defs>
<filter id="filter0_f_29_12897" x="11.1146" y="-30.3292" width="63.2619" height="63.2619" filterUnits="userSpaceOnUse" color-interpolation-filters="sRGB">
<feFlood flood-opacity="0" result="BackgroundImageFix"/>
<feBlend mode="normal" in="SourceGraphic" in2="BackgroundImageFix" result="shape"/>
<feGaussianBlur stdDeviation="12.3392" result="effect1_foregroundBlur_29_12897"/>
</filter>
<filter id="filter1_di_29_12897" x="-3.4794" y="31.1376" width="92.702" height="41.9749" filterUnits="userSpaceOnUse" color-interpolation-filters="sRGB">
<feFlood flood-opacity="0" result="BackgroundImageFix"/>
<feColorMatrix in="SourceAlpha" type="matrix" values="0 0 0 0 0 0 0 0 0 0 0 0 0 0 0 0 0 0 127 0" result="hardAlpha"/>
<feOffset dy="8.45148"/>
<feGaussianBlur stdDeviation="6.76119"/>
<feComposite in2="hardAlpha" operator="out"/>
<feColorMatrix type="matrix" values="0 0 0 0 0 0 0 0 0 0 0 0 0 0 0 0 0 0 0.07 0"/>
<feBlend mode="normal" in2="BackgroundImageFix" result="effect1_dropShadow_29_12897"/>
<feBlend mode="normal" in="SourceGraphic" in2="effect1_dropShadow_29_12897" result="shape"/>
<feColorMatrix in="SourceAlpha" type="matrix" values="0 0 0 0 0 0 0 0 0 0 0 0 0 0 0 0 0 0 127 0" result="hardAlpha"/>
<feOffset dy="2.25373"/>
<feGaussianBlur stdDeviation="3.38059"/>
<feComposite in2="hardAlpha" operator="arithmetic" k2="-1" k3="1"/>
<feColorMatrix type="matrix" values="0 0 0 0 1 0 0 0 0 1 0 0 0 0 1 0 0 0 1 0"/>
<feBlend mode="normal" in2="shape" result="effect2_innerShadow_29_12897"/>
</filter>
<linearGradient id="paint0_linear_29_12897" x1="42.8716" y1="0.852539" x2="42.8716" y2="86.4942" gradientUnits="userSpaceOnUse">
<stop stop-color="#0080FD"/>
<stop offset="1" stop-color="#0F34D8"/>
</linearGradient>
<clipPath id="clip0_29_12897">
<rect x="0.0507812" y="0.852539" width="85.6417" height="85.6417" rx="22.5373" fill="white"/>
</clipPath>
</defs>
</svg>
