<svg width="177" height="59" viewBox="0 0 177 59" fill="none" xmlns="http://www.w3.org/2000/svg">
<g opacity="0.3">
<path d="M171.114 36.3059L176.021 39.5771C174.428 41.9229 170.619 45.9473 164.033 45.9473C155.855 45.9473 149.765 39.6201 149.765 31.5713C149.765 23.0059 155.92 17.1952 163.345 17.1952C170.813 17.1952 174.471 23.135 175.655 26.3416L176.3 27.9772L157.061 35.94C158.524 38.8239 160.805 40.2873 164.033 40.2873C167.262 40.2873 169.5 38.6947 171.114 36.3059ZM156.028 31.1193L168.876 25.7821C168.165 23.9959 166.056 22.7261 163.538 22.7261C160.332 22.7261 155.877 25.5669 156.028 31.1193Z" fill="white"/>
<path d="M140.489 2.53937H146.687V44.6345H140.489V2.53937Z" fill="white"/>
<path d="M130.719 18.3143H136.702V43.8813C136.702 54.4912 130.439 58.8599 123.036 58.8599C116.063 58.8599 111.866 54.1684 110.295 50.3591L115.783 48.0779C116.773 50.4237 119.162 53.1999 123.036 53.1999C127.792 53.1999 130.719 50.2515 130.719 44.7421V42.6761H130.504C129.083 44.3978 126.372 45.9473 122.928 45.9473C115.74 45.9473 109.155 39.6847 109.155 31.6143C109.155 23.5009 115.74 17.1737 122.928 17.1737C126.35 17.1737 129.083 18.7017 130.504 20.3803H130.719V18.3143ZM131.149 31.6143C131.149 26.5353 127.77 22.8337 123.466 22.8337C119.119 22.8337 115.46 26.5353 115.46 31.6143C115.46 36.6287 119.119 40.2658 123.466 40.2658C127.77 40.2873 131.149 36.6287 131.149 31.6143Z" fill="white"/>
<path d="M75.13 31.5067C75.13 39.7923 68.6737 45.8828 60.7539 45.8828C52.8342 45.8828 46.3779 39.7708 46.3779 31.5067C46.3779 23.1781 52.8342 17.1091 60.7539 17.1091C68.6737 17.1091 75.13 23.1781 75.13 31.5067ZM68.8458 31.5067C68.8458 26.3416 65.1012 22.7907 60.7539 22.7907C56.4067 22.7907 52.662 26.3416 52.662 31.5067C52.662 36.6287 56.4067 40.2227 60.7539 40.2227C65.1012 40.2227 68.8458 36.6287 68.8458 31.5067Z" fill="white"/>
<path d="M106.529 31.5713C106.529 39.8569 100.073 45.9473 92.1531 45.9473C84.2334 45.9473 77.7771 39.8569 77.7771 31.5713C77.7771 23.2426 84.2334 17.1952 92.1531 17.1952C100.073 17.1952 106.529 23.2211 106.529 31.5713ZM100.224 31.5713C100.224 26.4062 96.4789 22.8552 92.1316 22.8552C87.7843 22.8552 84.0397 26.4062 84.0397 31.5713C84.0397 36.6933 87.7843 40.2873 92.1316 40.2873C96.5004 40.2873 100.224 36.6718 100.224 31.5713Z" fill="white"/>
<path d="M22.7477 39.6417C13.7304 39.6417 6.67152 32.3675 6.67152 23.3502C6.67152 14.3329 13.7304 7.05879 22.7477 7.05879C27.6115 7.05879 31.1625 8.97417 33.788 11.4276L38.1138 7.10183C34.4552 3.5939 29.5699 0.925293 22.7477 0.925293C10.3947 0.925293 0 10.9971 0 23.3502C0 35.7033 10.3947 45.7752 22.7477 45.7752C29.4193 45.7752 34.4552 43.58 38.3935 39.491C42.4395 35.4451 43.6877 29.7635 43.6877 25.158C43.6877 23.7161 43.5156 22.2311 43.3219 21.1336H22.7477V27.1164H37.4036C36.9732 30.8611 35.7895 33.4221 34.0463 35.1653C31.9372 37.2959 28.6015 39.6417 22.7477 39.6417Z" fill="white"/>
</g>
</svg>
