<svg width="15" height="16" viewBox="0 0 15 16" fill="none" xmlns="http://www.w3.org/2000/svg">
<path d="M3.9348 5.72404C3.9348 6.03931 4.19038 6.29489 4.50565 6.29489C4.82092 6.29489 5.07649 6.03931 5.07649 5.72404H4.50565H3.9348ZM4.50565 3.44066H3.9348H4.50565ZM7.35988 0.586426V0.0155792V0.586426ZM9.64326 5.72404C9.64326 6.03931 9.89884 6.29489 10.2141 6.29489C10.5294 6.29489 10.785 6.03931 10.785 5.72404H10.2141H9.64326ZM1.65141 5.72404V6.29489H13.0683V5.72404V5.1532H1.65141V5.72404ZM13.0683 5.72404V6.29489H13.6392H14.21C14.21 5.66435 13.6989 5.1532 13.0683 5.1532V5.72404ZM13.6392 6.29489H13.0683V14.2867H13.6392H14.21V6.29489H13.6392ZM13.6392 14.2867H13.0683V14.8576V15.4284C13.6989 15.4284 14.21 14.9173 14.21 14.2867H13.6392ZM13.0683 14.8576V14.2867H1.65141V14.8576V15.4284H13.0683V14.8576ZM1.65141 14.8576V14.2867H1.08057H0.50972C0.50972 14.9173 1.02087 15.4284 1.65141 15.4284V14.8576ZM1.08057 14.2867H1.65141V6.29489H1.08057H0.50972V14.2867H1.08057ZM1.08057 6.29489H1.65141V5.72404V5.1532C1.02087 5.1532 0.50972 5.66435 0.50972 6.29489H1.08057ZM8.21615 10.2908H7.6453C7.6453 10.4485 7.51751 10.5762 7.35988 10.5762V11.1471V11.7179C8.14805 11.7179 8.78699 11.079 8.78699 10.2908H8.21615ZM7.35988 11.1471V10.5762C7.20224 10.5762 7.07446 10.4485 7.07446 10.2908H6.50361H5.93276C5.93276 11.079 6.5717 11.7179 7.35988 11.7179V11.1471ZM6.50361 10.2908H7.07446C7.07446 10.1332 7.20224 10.0054 7.35988 10.0054V9.43455V8.8637C6.5717 8.8637 5.93276 9.50264 5.93276 10.2908H6.50361ZM7.35988 9.43455V10.0054C7.51751 10.0054 7.6453 10.1332 7.6453 10.2908H8.21615H8.78699C8.78699 9.50264 8.14805 8.8637 7.35988 8.8637V9.43455ZM4.50565 5.72404H5.07649V3.44066H4.50565H3.9348V5.72404H4.50565ZM4.50565 3.44066L5.07649 3.44066C5.07649 2.83507 5.31706 2.25428 5.74528 1.82606L5.34163 1.42241L4.93798 1.01876C4.29566 1.66109 3.9348 2.53227 3.9348 3.44066L4.50565 3.44066ZM5.34163 1.42241L5.74528 1.82606C6.1735 1.39784 6.75429 1.15727 7.35988 1.15727V0.586426V0.0155792C6.45149 0.0155792 5.58031 0.376435 4.93798 1.01876L5.34163 1.42241ZM7.35988 0.586426V1.15727C7.96547 1.15727 8.54626 1.39784 8.97448 1.82606L9.37813 1.42241L9.78178 1.01876C9.13945 0.376435 8.26827 0.0155792 7.35988 0.0155792V0.586426ZM9.37813 1.42241L8.97448 1.82606C9.40269 2.25428 9.64326 2.83507 9.64326 3.44066H10.2141H10.785C10.785 2.53227 10.4241 1.66109 9.78178 1.01876L9.37813 1.42241ZM10.2141 3.44066H9.64326V5.72404H10.2141H10.785V3.44066H10.2141Z" fill="#1DFFA9" fill-opacity="0.7"/>
</svg>
