<svg width="177" height="36" viewBox="0 0 177 36" fill="none" xmlns="http://www.w3.org/2000/svg">
<g opacity="0.3">
<path d="M6.42244 23.5572C6.42244 25.5992 6.87063 27.1669 7.45643 28.1154C8.22449 29.3577 9.37008 29.8839 10.538 29.8839C12.0443 29.8839 13.4224 29.5101 16.078 25.8372C18.2056 22.8933 20.7124 18.761 22.3992 16.1705L25.2557 11.7815C27.24 8.73348 29.5368 5.34509 32.1701 3.04835C34.3199 1.17376 36.639 0.132324 38.9729 0.132324C42.8913 0.132324 46.6238 2.40303 49.4803 6.66176C52.6065 11.3259 54.124 17.2007 54.124 23.2634C54.124 26.8675 53.4136 29.5157 52.2048 31.6079C51.0369 33.6313 48.7606 35.6528 44.9314 35.6528V29.8839C48.2101 29.8839 49.0284 26.8712 49.0284 23.4233C49.0284 18.51 47.8828 13.0573 45.3592 9.16121C43.5683 6.39768 41.2474 4.70907 38.694 4.70907C35.9323 4.70907 33.7099 6.79194 31.2124 10.5058C29.8845 12.4789 28.5214 14.8835 26.9908 17.5969L25.3059 20.5817C21.9213 26.583 21.0639 27.9499 19.3716 30.2057C16.4054 34.1557 13.8724 35.6528 10.538 35.6528C6.58237 35.6528 4.08106 33.94 2.53192 31.3587C1.26732 29.2554 0.646179 26.4956 0.646179 23.3508L6.42244 23.5572Z" fill="white"/>
<path d="M5.20061 7.06904C7.84883 2.98698 11.6705 0.132324 16.0539 0.132324C18.5924 0.132324 21.116 0.883647 23.7512 3.03533C26.6338 5.38786 29.706 9.26164 33.5389 15.646L34.9132 17.9372C38.2309 23.4642 40.1185 26.3077 41.2232 27.6486C42.644 29.3707 43.6389 29.8839 44.9314 29.8839C48.2101 29.8839 49.0284 26.8712 49.0284 23.4233L54.124 23.2634C54.124 26.8675 53.4136 29.5157 52.2048 31.6079C51.0369 33.6313 48.7606 35.6528 44.9314 35.6528C42.551 35.6528 40.4421 35.1358 38.11 32.9357C36.3173 31.2471 34.2214 28.2474 32.609 25.5508L27.8128 17.5392C25.4063 13.5185 23.1989 10.5207 21.9213 9.16307C20.5469 7.7032 18.7802 5.9402 15.9609 5.9402C13.679 5.9402 11.7412 7.5414 10.1195 9.99064L5.20061 7.06904Z" fill="white"/>
<path d="M15.9609 5.9402C13.679 5.9402 11.7412 7.5414 10.1195 9.99064C7.82652 13.4516 6.42244 18.6067 6.42244 23.5572C6.42244 25.5992 6.87063 27.1669 7.45643 28.1154L2.53192 31.3587C1.26732 29.2554 0.646179 26.4956 0.646179 23.3508C0.646179 17.6322 2.21577 11.6718 5.20061 7.06904C7.84883 2.98698 11.6705 0.132324 16.0539 0.132324L15.9609 5.9402Z" fill="white"/>
<path d="M65.3529 1.25559H72.0348L83.3958 21.8091L94.7586 1.25559H101.295V35.0279H95.8447V9.14447L85.8804 27.0683H80.7662L70.8037 9.14447V35.0279H65.3529V1.25559ZM118.375 13.8477C114.466 13.8477 112.112 16.7897 111.548 20.4329H124.815C124.542 16.68 122.377 13.8477 118.375 13.8477ZM106.144 22.5083C106.144 14.8426 111.098 9.2635 118.47 9.2635C125.721 9.2635 130.05 14.772 130.05 22.9175V24.4145H111.548C112.205 28.3776 114.834 31.0481 119.074 31.0481C122.457 31.0481 124.572 30.016 126.576 28.1284L129.472 31.6748C126.744 34.1836 123.274 35.6305 118.881 35.6305C110.901 35.6305 106.144 29.8114 106.144 22.5083ZM136.66 14.3312H131.642V9.8679H136.66V2.48672H141.919V9.8679H149.542V14.3312H141.919V25.6438C141.919 29.5064 143.154 30.8789 146.189 30.8789C147.574 30.8789 148.368 30.7599 149.542 30.5646V34.9796C148.08 35.3924 146.685 35.5821 145.175 35.5821C139.498 35.5821 136.66 32.4801 136.66 26.2705V14.3312ZM171.687 18.6718C170.631 16.0049 168.275 14.0411 164.812 14.0411C160.312 14.0411 157.431 17.2342 157.431 22.4358C157.431 27.5072 160.083 30.8547 164.596 30.8547C168.145 30.8547 170.678 28.7904 171.687 26.2222V18.6718ZM176.947 35.0279H171.784V31.5056C170.341 33.5792 167.715 35.6305 163.462 35.6305C156.622 35.6305 152.051 29.9044 152.051 22.4358C152.051 14.8966 156.732 9.2635 163.752 9.2635C167.222 9.2635 169.945 10.6508 171.784 13.1001V9.8679H176.947V35.0279Z" fill="white"/>
</g>
</svg>
