<svg width="146" height="40" viewBox="0 0 146 40" fill="none" xmlns="http://www.w3.org/2000/svg">
<g opacity="0.3" clip-path="url(#clip0_401_9431)">
<path d="M96.8679 0.378174V28.7172C100.363 28.8799 103.85 29.0764 107.326 29.3084V35.3166C101.831 34.9503 96.3116 34.6706 90.7698 34.4799V0.378174H96.8679ZM145.326 0.381531L137.386 18.7912L145.324 39.2778L145.316 39.2817C143.003 38.9517 140.688 38.6403 138.365 38.3417L133.907 26.8435L129.407 37.2743C127.274 37.0388 125.138 36.816 122.997 36.6072L130.739 18.6681L123.649 0.381531H130.246L134.215 10.6149L138.629 0.381531H145.326ZM69.8409 34.1821L69.8407 0.381423H86.8634V6.44365H75.9388V14.3006H84.2047V20.3088H75.9388V34.1808L69.8409 34.1821ZM47.0705 6.44416L47.0703 0.381107H65.9316V6.44373H59.5498V34.3466C57.5144 34.3999 55.4811 34.463 53.452 34.5396V6.44416H47.0705ZM26.2235 36.2863V0.382124H43.1614V6.44435H32.3207V14.6561C34.8112 14.6243 38.3523 14.5881 40.5554 14.5934V20.6022C37.7977 20.5679 34.6849 20.64 32.3207 20.6636V29.7599C35.9237 29.4765 39.5376 29.2286 43.1614 29.0192V35.028C37.4898 35.3547 31.8436 35.7756 26.2235 36.2863ZM14.2612 22.3966L14.2608 0.381136H20.359V36.8527C18.1297 37.082 15.9047 37.326 13.6836 37.5836L6.62231 17.2975V38.4525C4.5857 38.7178 2.55324 38.9943 0.524536 39.283V0.381531H6.31977L14.2612 22.3966ZM112.357 35.679V0.38157H118.455V36.1826C116.425 36.0019 114.393 35.8348 112.357 35.679Z" fill="white"/>
</g>
<defs>
<clipPath id="clip0_401_9431">
<rect width="144.802" height="39.0286" fill="white" transform="translate(0.524536 0.378174)"/>
</clipPath>
</defs>
</svg>
