<svg width="641" height="210" viewBox="0 0 641 210" fill="none" xmlns="http://www.w3.org/2000/svg">
<g filter="url(#filter0_i_29_13321)">
<path d="M0.740234 206.428V10.0644H74.3766C89.4618 10.0644 102.118 12.8769 112.345 18.5019C122.637 24.1269 130.403 31.8613 135.644 41.705C140.95 51.4849 143.602 62.607 143.602 75.0715C143.602 87.6639 140.95 98.8499 135.644 108.63C130.339 118.41 122.509 126.112 112.154 131.737C101.798 137.298 89.0463 140.079 73.8972 140.079H25.0939V110.835H69.1032C77.9242 110.835 85.1472 109.301 90.7722 106.233C96.3972 103.165 100.552 98.9458 103.237 93.5765C105.985 88.2072 107.36 82.0389 107.36 75.0715C107.36 68.1042 105.985 61.9678 103.237 56.6624C100.552 51.357 96.3652 47.2342 90.6763 44.2938C85.0513 41.2896 77.7963 39.7874 68.9114 39.7874H36.312V206.428H0.740234Z" fill="url(#paint0_linear_29_13321)" fill-opacity="0.23"/>
<path d="M162.166 206.428V59.1553H195.82V83.7008H197.354C200.039 75.1994 204.641 68.6475 211.161 64.0452C217.745 59.379 225.255 57.046 233.693 57.046C235.611 57.046 237.752 57.1418 240.117 57.3336C242.546 57.4614 244.559 57.6852 246.157 58.0048V89.933C244.687 89.4217 242.354 88.9742 239.158 88.5907C236.026 88.1432 232.99 87.9195 230.049 87.9195C223.721 87.9195 218.032 89.2938 212.983 92.0424C207.997 94.7271 204.066 98.4664 201.189 103.26C198.313 108.054 196.875 113.584 196.875 119.848V206.428H162.166Z" fill="url(#paint1_linear_29_13321)" fill-opacity="0.23"/>
<path d="M316.592 209.304C302.21 209.304 289.746 206.14 279.199 199.812C268.652 193.484 260.47 184.631 254.653 173.253C248.901 161.876 246.024 148.58 246.024 133.367C246.024 118.154 248.901 104.826 254.653 93.3847C260.47 81.943 268.652 73.058 279.199 66.7299C289.746 60.4018 302.21 57.2377 316.592 57.2377C330.974 57.2377 343.439 60.4018 353.986 66.7299C364.533 73.058 372.682 81.943 378.435 93.3847C384.252 104.826 387.16 118.154 387.16 133.367C387.16 148.58 384.252 161.876 378.435 173.253C372.682 184.631 364.533 193.484 353.986 199.812C343.439 206.14 330.974 209.304 316.592 209.304ZM316.784 181.499C324.582 181.499 331.102 179.358 336.344 175.075C341.585 170.728 345.484 164.912 348.041 157.625C350.662 150.338 351.972 142.22 351.972 133.271C351.972 124.258 350.662 116.108 348.041 108.822C345.484 101.471 341.585 95.6219 336.344 91.2754C331.102 86.9288 324.582 84.7555 316.784 84.7555C308.794 84.7555 302.146 86.9288 296.841 91.2754C291.599 95.6219 287.668 101.471 285.048 108.822C282.491 116.108 281.212 124.258 281.212 133.271C281.212 142.22 282.491 150.338 285.048 157.625C287.668 164.912 291.599 170.728 296.841 175.075C302.146 179.358 308.794 181.499 316.784 181.499Z" fill="url(#paint2_linear_29_13321)" fill-opacity="0.23"/>
<path d="M470.06 209.304C455.678 209.304 443.213 206.14 432.666 199.812C422.12 193.484 413.938 184.631 408.121 173.253C402.368 161.876 399.492 148.58 399.492 133.367C399.492 118.154 402.368 104.826 408.121 93.3847C413.938 81.943 422.12 73.058 432.666 66.7299C443.213 60.4018 455.678 57.2377 470.06 57.2377C484.442 57.2377 496.906 60.4018 507.453 66.7299C518 73.058 526.15 81.943 531.903 93.3847C537.72 104.826 540.628 118.154 540.628 133.367C540.628 148.58 537.72 161.876 531.903 173.253C526.15 184.631 518 193.484 507.453 199.812C496.906 206.14 484.442 209.304 470.06 209.304ZM470.252 181.499C478.05 181.499 484.57 179.358 489.811 175.075C495.053 170.728 498.952 164.912 501.509 157.625C504.129 150.338 505.44 142.22 505.44 133.271C505.44 124.258 504.129 116.108 501.509 108.822C498.952 101.471 495.053 95.6219 489.811 91.2754C484.57 86.9288 478.05 84.7555 470.252 84.7555C462.262 84.7555 455.614 86.9288 450.308 91.2754C445.067 95.6219 441.136 101.471 438.515 108.822C435.958 116.108 434.68 124.258 434.68 133.271C434.68 142.22 435.958 150.338 438.515 157.625C441.136 164.912 445.067 170.728 450.308 175.075C455.614 179.358 462.262 181.499 470.252 181.499Z" fill="url(#paint3_linear_29_13321)" fill-opacity="0.23"/>
<path d="M633.883 59.1553V86.0019H546.823V59.1553H633.883ZM568.588 206.428V45.2526C568.588 35.3449 570.633 27.0992 574.724 20.5154C578.879 13.9316 584.44 9.00973 591.407 5.74978C598.375 2.48984 606.109 0.859863 614.611 0.859863C620.619 0.859863 625.956 1.33927 630.623 2.29809C635.289 3.25689 638.741 4.11981 640.978 4.88686L634.074 31.7335C632.604 31.286 630.75 30.8386 628.513 30.3911C626.276 29.8798 623.783 29.6241 621.035 29.6241C614.579 29.6241 610.008 31.1901 607.324 34.3222C604.703 37.3904 603.393 41.8009 603.393 47.5538V206.428H568.588Z" fill="url(#paint4_linear_29_13321)" fill-opacity="0.23"/>
</g>
<defs>
<filter id="filter0_i_29_13321" x="0.740234" y="0.859863" width="640.237" height="222.445" filterUnits="userSpaceOnUse" color-interpolation-filters="sRGB">
<feFlood flood-opacity="0" result="BackgroundImageFix"/>
<feBlend mode="normal" in="SourceGraphic" in2="BackgroundImageFix" result="shape"/>
<feColorMatrix in="SourceAlpha" type="matrix" values="0 0 0 0 0 0 0 0 0 0 0 0 0 0 0 0 0 0 127 0" result="hardAlpha"/>
<feOffset dy="14"/>
<feGaussianBlur stdDeviation="7"/>
<feComposite in2="hardAlpha" operator="arithmetic" k2="-1" k3="1"/>
<feColorMatrix type="matrix" values="0 0 0 0 1 0 0 0 0 1 0 0 0 0 1 0 0 0 0.02 0"/>
<feBlend mode="normal" in2="shape" result="effect1_innerShadow_29_13321"/>
</filter>
<linearGradient id="paint0_linear_29_13321" x1="320.859" y1="0.859863" x2="320.859" y2="209.304" gradientUnits="userSpaceOnUse">
<stop stop-color="white"/>
<stop offset="1" stop-color="white" stop-opacity="0"/>
</linearGradient>
<linearGradient id="paint1_linear_29_13321" x1="320.859" y1="0.859863" x2="320.859" y2="209.304" gradientUnits="userSpaceOnUse">
<stop stop-color="white"/>
<stop offset="1" stop-color="white" stop-opacity="0"/>
</linearGradient>
<linearGradient id="paint2_linear_29_13321" x1="320.859" y1="0.859863" x2="320.859" y2="209.304" gradientUnits="userSpaceOnUse">
<stop stop-color="white"/>
<stop offset="1" stop-color="white" stop-opacity="0"/>
</linearGradient>
<linearGradient id="paint3_linear_29_13321" x1="320.859" y1="0.859863" x2="320.859" y2="209.304" gradientUnits="userSpaceOnUse">
<stop stop-color="white"/>
<stop offset="1" stop-color="white" stop-opacity="0"/>
</linearGradient>
<linearGradient id="paint4_linear_29_13321" x1="320.859" y1="0.859863" x2="320.859" y2="209.304" gradientUnits="userSpaceOnUse">
<stop stop-color="white"/>
<stop offset="1" stop-color="white" stop-opacity="0"/>
</linearGradient>
</defs>
</svg>
