<svg width="178" height="56" viewBox="0 0 178 56" fill="none" xmlns="http://www.w3.org/2000/svg">
<path opacity="0.3" d="M28.3326 0.464844C13.1848 0.464844 0.904419 12.7449 0.904419 27.8927C0.904419 43.0412 13.1848 55.3202 28.3326 55.3202C43.4821 55.3202 55.7611 43.0412 55.7611 27.8927C55.7611 12.7458 43.4821 0.466154 28.3323 0.466154L28.3326 0.464844ZM40.911 40.0237C40.4197 40.8294 39.3651 41.0849 38.5593 40.5903C32.1195 36.6567 24.0125 35.7658 14.4651 37.9472C13.545 38.1568 12.628 37.5803 12.4183 36.66C12.2077 35.7396 12.7819 34.8225 13.7042 34.6129C24.1524 32.2259 33.1145 33.2537 40.3444 37.672C41.1501 38.1666 41.4056 39.218 40.911 40.0237ZM44.2682 32.5554C43.6491 33.5616 42.3325 33.8793 41.327 33.2602C33.9543 28.7286 22.7158 27.4162 13.9954 30.0632C12.8644 30.4048 11.6699 29.7675 11.3267 28.6385C10.9861 27.5075 11.6238 26.3153 12.7527 25.9714C22.7139 22.949 35.0974 24.413 43.564 29.6158C44.5695 30.2349 44.8872 31.5512 44.2682 32.5554ZM44.5564 24.7786C35.7164 19.528 21.1316 19.0452 12.6915 21.6068C11.3362 22.0178 9.90293 21.2527 9.49221 19.8974C9.08149 18.5415 9.84594 17.1092 11.2022 16.6971C20.8908 13.7559 36.997 14.3242 47.1746 20.3661C48.3963 21.0896 48.7959 22.664 48.0721 23.8815C47.3515 25.1005 45.7728 25.5024 44.5577 24.7786H44.5564ZM75.5275 25.7847C70.7914 24.6554 69.9496 23.8628 69.9496 22.1973C69.9496 20.6239 71.4301 19.565 73.6343 19.565C75.7698 19.565 77.8857 20.3691 80.1063 22.0244C80.1718 22.0745 80.257 22.0945 80.3388 22.0814C80.424 22.0689 80.4961 22.0234 80.5452 21.9549L82.8575 18.6954C82.9525 18.5611 82.9263 18.376 82.7986 18.2735C80.1554 16.1534 77.1815 15.1227 73.7031 15.1227C68.5904 15.1227 65.0171 18.1913 65.0171 22.5818C65.0171 27.2901 68.0991 28.9572 73.4247 30.244C77.9544 31.2879 78.7209 32.1624 78.7209 33.7253C78.7209 35.458 77.1749 36.5355 74.6857 36.5355C71.9214 36.5355 69.6647 35.6021 67.1427 33.4207C67.0805 33.365 66.9953 33.3421 66.9167 33.3454C66.8316 33.3519 66.7562 33.3912 66.7038 33.4535L64.1098 36.5388C64.0017 36.6698 64.0148 36.8598 64.1393 36.9711C67.0739 39.5914 70.6833 40.9735 74.5809 40.9735C80.0899 40.9735 83.6502 37.9635 83.6502 33.3028C83.66 29.3702 81.305 27.1921 75.5373 25.789L75.5275 25.7847ZM96.1159 21.1142C93.7282 21.1142 91.7696 22.0548 90.1516 23.9823V21.8128C90.1516 21.6415 90.014 21.502 89.8437 21.502H85.6022C85.4319 21.502 85.2943 21.6415 85.2943 21.8128V45.9192C85.2943 46.0895 85.4319 46.2304 85.6022 46.2304H89.8437C90.014 46.2304 90.1516 46.0895 90.1516 45.9192V38.3107C91.7696 40.122 93.7282 41.0096 96.1159 41.0096C100.554 41.0096 105.048 37.5934 105.048 31.0629C105.054 24.531 100.56 21.1139 96.1192 21.1139L96.1159 21.1142ZM100.115 31.0629C100.115 34.3869 98.0679 36.7091 95.1333 36.7091C92.2347 36.7091 90.0468 34.2821 90.0468 31.0629C90.0468 27.8432 92.2347 25.4169 95.1333 25.4169C98.0188 25.4166 100.115 27.7908 100.115 31.0629ZM116.56 21.1142C110.845 21.1142 106.367 25.5149 106.367 31.1339C106.367 36.6927 110.815 41.0456 116.491 41.0456C122.226 41.0456 126.717 36.66 126.717 31.0629C126.717 25.4847 122.256 21.1148 116.56 21.1148V21.1142ZM116.56 36.7419C113.521 36.7419 111.228 34.2985 111.228 31.0612C111.228 27.8092 113.442 25.4493 116.491 25.4493C119.551 25.4493 121.856 27.8917 121.856 31.1323C121.856 34.3837 119.629 36.7419 116.56 36.7419ZM138.921 21.502H134.253V16.7312C134.253 16.5602 134.116 16.4207 133.945 16.4207H129.704C129.534 16.4207 129.393 16.5602 129.393 16.7312V21.502H127.356C127.185 21.502 127.048 21.6415 127.048 21.8128V25.4572C127.048 25.6282 127.185 25.768 127.356 25.768H129.393V35.1992C129.393 39.0084 131.289 40.9408 135.033 40.9408C136.552 40.9408 137.813 40.6263 139.002 39.9516C139.101 39.8992 139.16 39.7944 139.16 39.6831V36.2113C139.16 36.1065 139.104 36.0049 139.012 35.9492C138.921 35.8903 138.806 35.887 138.711 35.9361C137.895 36.3456 137.106 36.5355 136.222 36.5355C134.862 36.5355 134.253 35.9165 134.253 34.5343V25.7697H138.921C139.091 25.7697 139.228 25.6301 139.228 25.4588V21.8148C139.235 21.6435 139.097 21.5039 138.924 21.5039L138.921 21.502ZM155.179 20.9347C155.179 19.2109 155.841 18.4422 157.321 18.4422C158.205 18.4422 158.916 18.6178 159.712 18.8831C159.81 18.9138 159.912 18.8985 159.99 18.8398C160.072 18.7812 160.118 18.6872 160.118 18.5876V15.0143C160.118 14.8777 160.033 14.7569 159.899 14.7166C159.06 14.4667 157.986 14.2102 156.374 14.2102C152.461 14.2102 150.387 16.4158 150.387 20.5862V21.4836H148.35C148.18 21.4836 148.039 21.6232 148.039 21.7941V25.4572C148.039 25.6282 148.18 25.768 148.35 25.768H150.387V40.3119C150.387 40.4855 150.528 40.6231 150.698 40.6231H154.937C155.11 40.6231 155.248 40.4855 155.248 40.3119V25.769H159.208L165.273 40.3119C164.586 41.8382 163.908 42.1428 162.984 42.1428C162.237 42.1428 161.448 41.9201 160.645 41.4779C160.57 41.4386 160.478 41.4321 160.4 41.455C160.318 41.4845 160.249 41.5434 160.216 41.622L158.779 44.7761C158.71 44.9268 158.769 45.1004 158.913 45.179C160.413 45.9913 161.766 46.3384 163.439 46.3384C166.57 46.3384 168.303 44.8777 169.826 40.9539L177.182 21.9451C177.222 21.8495 177.209 21.7414 177.15 21.6566C177.094 21.5724 176.999 21.5216 176.897 21.5216H172.482C172.348 21.5216 172.23 21.6058 172.188 21.7299L167.664 34.6457L162.712 21.7214C162.666 21.6012 162.552 21.5216 162.424 21.5216H155.179V20.9347ZM145.753 21.502H141.511C141.341 21.502 141.2 21.6415 141.2 21.8128V40.3119C141.2 40.4855 141.341 40.6231 141.511 40.6231H145.753C145.923 40.6231 146.064 40.4855 146.064 40.3119V21.8141C146.064 21.6428 145.926 21.5033 145.753 21.5033V21.502ZM143.657 13.0783C141.976 13.0783 140.614 14.4382 140.614 16.1181C140.614 17.7989 141.976 19.1605 143.657 19.1605C145.337 19.1605 146.696 17.7989 146.696 16.1181C146.696 14.4385 145.334 13.0783 143.657 13.0783Z" fill="white"/>
</svg>
