<svg width="17" height="18" viewBox="0 0 17 18" fill="none" xmlns="http://www.w3.org/2000/svg">
<path d="M9.42309 1.52264C8.87859 0.392844 7.26154 0.392842 6.71704 1.52264L5.28968 4.48434C5.27901 4.50648 5.25572 4.52525 5.22471 4.5293L1.93875 4.95817C0.69581 5.12039 0.176931 6.65226 1.10346 7.5231L3.50726 9.7824C3.52684 9.80082 3.53381 9.8254 3.52965 9.84764L2.92618 13.0745C2.6924 14.3245 4.01962 15.2491 5.1145 14.6607L8.02746 13.0954C8.05381 13.0812 8.08632 13.0812 8.1126 13.0954L11.0256 14.6607C12.1205 15.2491 13.4477 14.3245 13.2139 13.0745L12.6104 9.84764C12.6063 9.8254 12.6133 9.80082 12.6328 9.7824L15.0366 7.5231C15.9632 6.65226 15.4443 5.12039 14.2014 4.95817L10.9154 4.5293C10.8844 4.52525 10.8611 4.50648 10.8504 4.48434L9.42309 1.52264Z" fill="#EFCC3A"/>
</svg>
