<svg width="57" height="30" viewBox="0 0 57 30" fill="none" xmlns="http://www.w3.org/2000/svg">
<path d="M26.2806 0.0564843C26.3815 0.165435 26.3539 0.282372 26.355 0.432639C26.3356 1.66614 25.5853 2.69545 24.8238 3.54754C23.4404 4.99026 21.7426 5.742 19.996 6.55178C19.3362 6.85776 18.682 7.17566 18.0295 7.49927C17.2446 7.88854 16.4576 8.27197 15.6676 8.64913C15.2595 8.84402 14.8524 9.0414 14.4454 9.23895C13.6959 9.60261 12.9442 9.96029 12.1897 10.312C11.9726 10.4133 11.7555 10.5147 11.5384 10.6163C11.499 10.6347 11.4596 10.6532 11.4189 10.6722C11.2976 10.7289 11.1763 10.7857 11.055 10.8424C10.8939 10.9178 10.7328 10.9931 10.5716 11.0685C10.5325 11.0868 10.4934 11.1051 10.453 11.124C10.2151 11.2353 9.97706 11.3464 9.739 11.4573C9.44779 11.5932 9.15693 11.7299 8.86633 11.8673C8.72892 11.9323 8.59144 11.997 8.45392 12.0617C6.58051 12.9348 6.58051 12.9348 4.91468 14.1897C4.86601 14.2349 4.86601 14.2349 4.81635 14.281C4.04324 15.0127 3.38437 16.1053 3.27224 17.2319C3.2567 17.5187 3.26456 17.8031 3.27842 18.0899C3.28611 18.2581 3.2903 18.4262 3.29418 18.5945C3.30956 19.1432 3.33081 19.6621 3.48974 20.1881C3.53522 20.3401 3.56186 20.4865 3.58715 20.6435C3.7153 21.2803 4.04409 21.9721 4.55692 22.3398C4.72095 22.4394 4.88695 22.5315 5.05566 22.6215C5.11147 22.6526 5.16728 22.6837 5.22478 22.7157C5.59391 22.9184 5.96923 23.0915 6.35578 23.2513C6.41499 23.2772 6.47419 23.303 6.53519 23.3297C6.98657 23.5092 7.43314 23.5773 7.90728 23.6429C8.28116 23.6969 8.63902 23.7751 9.00303 23.881C9.56327 24.0418 10.1286 24.1625 10.6987 24.2741C10.7431 24.2828 10.7876 24.2915 10.8334 24.3005C11.4683 24.4237 12.1038 24.5302 12.745 24.608C13.0307 24.6435 13.2941 24.6834 13.5613 24.8066C13.6532 25.0049 13.6468 25.1258 13.6239 25.3476C13.4297 25.8393 13.0925 26.1514 12.6503 26.3746C11.5119 26.8562 10.3801 26.7761 9.25488 26.2996C9.03792 26.2224 8.82292 26.172 8.5996 26.1216C7.19038 25.7984 5.9268 24.9994 4.78937 24.0627C4.71946 24.0069 4.71946 24.0069 4.64815 23.95C3.32352 22.8733 2.71093 21.682 2.45908 19.8992C2.43223 19.6644 2.41822 19.4302 2.40842 19.1939C2.40576 19.1372 2.40311 19.0806 2.40037 19.0222C2.33702 17.4509 2.52718 15.9522 3.1603 14.5279C3.20791 14.4189 3.20791 14.4189 3.25649 14.3078C3.48573 13.8233 3.78692 13.397 4.10015 12.9725C4.13625 12.923 4.17235 12.8735 4.20955 12.8225C4.50712 12.4343 4.86152 12.1323 5.22797 11.8229C5.31992 11.7424 5.31992 11.7424 5.41373 11.6602C5.92897 11.217 6.47457 10.8462 7.04155 10.485C7.15285 10.414 7.26358 10.3419 7.3742 10.2697C7.75026 10.0267 8.13501 9.81183 8.52822 9.60381C8.84554 9.43473 9.1536 9.25177 9.4612 9.06306C9.87889 8.80817 10.3037 8.57763 10.7378 8.35724C11.8325 7.8015 12.8989 7.18588 13.9681 6.57577C14.3096 6.3815 14.6539 6.19409 14.9999 6.00943C15.3184 5.83873 15.6324 5.65962 15.9462 5.47903C16.4542 5.18725 16.9708 4.91826 17.4911 4.65299C17.8717 4.45812 18.2449 4.25354 18.6146 4.03563C18.8938 3.87224 19.1783 3.72501 19.4667 3.58135C20.0578 3.28622 20.6312 2.95757 21.2054 2.62617C22.0324 2.14996 22.8633 1.68739 23.7092 1.25125C23.8288 1.1895 23.9484 1.12772 24.068 1.06592C24.1487 1.02423 24.2295 0.982588 24.3102 0.940994C24.8255 0.6753 25.3275 0.400072 25.8087 0.0673146C25.998 -0.0263503 26.0859 -0.0149171 26.2806 0.0564843Z" fill="white"/>
<path d="M23.3357 12.8373C23.4872 12.9839 23.5207 13.0737 23.5399 13.2922C23.4884 13.9967 22.9853 14.6762 22.5212 15.1365C21.6422 15.9398 20.5369 16.2376 19.451 16.5566C19.3171 16.5968 19.1833 16.637 19.0494 16.6773C18.1671 16.9405 17.2799 17.1725 16.3869 17.3887C16.1991 17.4342 16.0114 17.4802 15.8238 17.5265C15.4875 17.6095 15.151 17.6919 14.8144 17.7738C14.7681 17.7851 14.7217 17.7964 14.6739 17.808C14.4476 17.8631 14.2211 17.9174 13.9945 17.9709C13.7718 18.0235 13.5498 18.0787 13.3278 18.1346C11.8329 18.5038 10.3094 18.7555 8.78774 18.9592C8.23582 19.0332 7.69989 19.1451 7.15859 19.2826C7.07948 19.3018 7.00036 19.3209 6.91885 19.3406C5.9507 19.5522 5.9507 19.5522 5.22798 20.2082C5.23651 20.4275 5.23651 20.4275 5.29064 20.614C5.33199 20.614 5.37335 20.614 5.41595 20.614C5.41595 20.6586 5.41595 20.7032 5.41595 20.7492C5.64048 20.8752 5.87157 20.9828 6.10517 21.0873C6.14257 21.1049 6.17997 21.1226 6.21849 21.1407C7.01438 21.4943 7.87453 21.4465 8.71864 21.4458C8.85234 21.4461 8.98604 21.4463 9.11974 21.4467C9.40023 21.4472 9.68072 21.4472 9.96122 21.4468C10.2437 21.4465 10.5262 21.4469 10.8087 21.4482C12.3357 21.4549 13.8496 21.4382 15.3706 21.2817C15.4138 21.2773 15.457 21.2728 15.5014 21.2683C15.5434 21.264 15.5854 21.2597 15.6286 21.2552C16.2995 21.1899 17.0293 21.1285 17.6966 21.2226C17.8452 21.383 17.842 21.4259 17.8455 21.6452C17.8375 21.9623 17.7644 22.1264 17.5713 22.3722C17.5289 22.4283 17.5289 22.4283 17.4857 22.4855C16.9503 23.1337 16.2151 23.3961 15.441 23.5218C15.3913 23.5306 15.3417 23.5394 15.2905 23.5485C14.328 23.6854 13.3721 23.5781 12.4204 23.4152C12.1136 23.3649 11.8057 23.3248 11.4976 23.2851C11.4004 23.2725 11.4004 23.2725 11.3013 23.2596C10.861 23.2037 10.4203 23.1561 9.9789 23.111C5.71408 22.6733 5.71408 22.6733 4.60142 21.2902C4.43408 21.0241 4.36171 20.8348 4.3711 20.5147C4.46308 20.1428 4.73651 19.8714 4.97736 19.5996C5.00963 19.5609 5.0419 19.5223 5.07515 19.4824C5.34303 19.1728 5.6112 18.9896 5.96811 18.8177C6.01996 18.7921 6.07181 18.7665 6.12523 18.7402C6.86717 18.382 7.61802 18.1296 8.41326 17.9546C8.88559 17.8458 9.33584 17.6769 9.79195 17.5074C10.2058 17.3548 10.6202 17.2208 11.0433 17.1018C11.6298 16.9356 12.2021 16.7351 12.7761 16.5249C13.3791 16.3047 13.9856 16.099 14.5939 15.897C15.1208 15.722 15.6461 15.5427 16.1709 15.3608C16.481 15.2539 16.7916 15.1538 17.1053 15.0604C17.4453 14.9582 17.7699 14.831 18.0963 14.6864C18.2892 14.6091 18.4806 14.5424 18.6774 14.4782C19.253 14.2895 19.8216 14.0785 20.3909 13.8686C20.4476 13.8477 20.5044 13.8268 20.5629 13.8053C21.2669 13.5464 21.9688 13.2853 22.6575 12.9816C22.8895 12.8811 23.0841 12.7989 23.3357 12.8373Z" fill="white"/>
<path d="M25.6462 4.73518C25.7794 4.79012 25.7794 4.79012 25.842 4.85775C25.9025 5.58914 25.5599 6.12558 25.1528 6.68357C24.105 8.03341 22.9258 8.74039 21.4163 9.3683C21.1458 9.48095 20.8761 9.59556 20.6064 9.71021C20.3912 9.80165 20.1759 9.89279 19.9606 9.98391C19.3899 10.2256 18.8196 10.4688 18.2494 10.712C18.1338 10.7614 18.0182 10.8107 17.9025 10.86C17.2424 11.1414 16.5827 11.4239 15.9243 11.7097C15.5468 11.8732 15.167 12.0288 14.7856 12.1814C14.4131 12.3313 14.0421 12.485 13.671 12.6386C13.5697 12.6804 13.5697 12.6804 13.4665 12.723C13.1362 12.86 12.8079 13.0004 12.4817 13.1485C12.1749 13.2875 11.8659 13.4145 11.5524 13.5347C7.33086 14.8394 7.33086 14.8394 4.03752 17.6385C4.01685 17.6385 3.99617 17.6385 3.97487 17.6385C3.94284 16.749 4.35643 15.8962 4.88339 15.2379C6.0286 13.9489 7.51593 13.274 9.02047 12.598C9.3613 12.4432 9.699 12.2809 10.0369 12.1188C10.5382 11.8792 11.0417 11.6471 11.5485 11.4214C12.3727 11.0537 13.1866 10.6623 13.9999 10.2676C14.0967 10.2207 14.1934 10.1738 14.2901 10.1268C14.8258 9.86699 15.3613 9.60682 15.8968 9.3465C16.4728 9.06645 17.0493 8.78736 17.626 8.50876C18.0729 8.29275 18.5194 8.0759 18.9657 7.85853C19.0789 7.80345 19.192 7.74837 19.3052 7.6933C19.4721 7.61207 19.639 7.5308 19.8058 7.4494C20.3281 7.19457 20.8502 6.94145 21.3804 6.70636C21.8521 6.49416 22.3193 6.27044 22.7875 6.0496C22.9459 5.97502 23.1042 5.90045 23.2625 5.82588C23.3664 5.77695 23.4702 5.72798 23.574 5.67895C23.8191 5.56318 24.0644 5.44789 24.3102 5.33395C24.3552 5.31301 24.4002 5.29207 24.4465 5.27049C24.5294 5.2319 24.6124 5.19351 24.6955 5.15539C24.8929 5.06319 25.0793 4.9623 25.2637 4.84338C25.4661 4.7225 25.4661 4.7225 25.6462 4.73518Z" fill="white"/>
<path d="M24.9648 8.84752C25.0275 8.91514 25.0275 8.91514 25.0509 9.18141C25.0362 9.95971 24.505 10.4946 24.0249 11.0115C23.9744 11.0668 23.9238 11.1222 23.8717 11.1792C22.8369 12.2499 21.388 12.6722 20.0619 13.15C19.8507 13.2264 19.6396 13.3028 19.4285 13.3795C19.2982 13.4269 19.1678 13.474 19.0373 13.5209C18.6929 13.6457 18.3546 13.78 18.0188 13.9295C17.8262 14.0118 17.6299 14.0714 17.4303 14.1306C16.9079 14.29 16.394 14.4759 15.8796 14.6631C15.3287 14.8635 14.7777 15.0589 14.2183 15.23C13.9633 15.3087 13.7157 15.3998 13.4673 15.5C12.9895 15.6896 12.5006 15.8324 12.0094 15.9759C11.6239 16.0893 11.2457 16.2161 10.8674 16.3548C10.5506 16.4667 10.2292 16.5594 9.90764 16.6538C9.40164 16.8044 8.90282 16.964 8.40657 17.1485C8.12161 17.2513 7.83431 17.3436 7.54626 17.4357C7.33732 17.503 7.12846 17.5706 6.9197 17.6385C6.8747 17.6532 6.8297 17.6678 6.78334 17.6829C5.77178 18.0164 4.9859 18.4999 4.29693 19.3743C4.1586 19.5369 4.01213 19.669 3.84953 19.8025C3.94104 18.7754 4.47301 17.9132 5.18486 17.2573C5.94214 16.5979 6.89411 16.1546 7.82288 15.8611C8.05646 15.7868 8.27455 15.7026 8.49395 15.5887C8.80609 15.4282 9.12425 15.3 9.44946 15.1745C10.1036 14.9217 10.7539 14.6585 11.4036 14.3926C11.4793 14.3616 11.4793 14.3616 11.5566 14.33C12.1835 14.0735 12.8103 13.8167 13.4365 13.5582C13.6984 13.4502 13.9607 13.3435 14.2234 13.2378C14.7202 13.0377 15.2144 12.8313 15.7073 12.6204C15.9305 12.5249 16.1538 12.4297 16.3772 12.3346C16.4236 12.3148 16.47 12.2951 16.5178 12.2747C16.9918 12.073 17.4668 11.8742 17.9418 11.6755C18.6894 11.3627 19.4355 11.0468 20.1794 10.7241C21.1431 10.3061 22.1117 9.90262 23.0831 9.50632C23.1424 9.48211 23.2016 9.45789 23.2627 9.43295C23.3719 9.38835 23.4812 9.34392 23.5905 9.29968C23.8878 9.17842 24.1774 9.04658 24.4649 8.90013C24.6364 8.82734 24.7832 8.82303 24.9648 8.84752Z" fill="white"/>
<path d="M7.20558 9.18141C7.28118 9.1835 7.28118 9.1835 7.35831 9.18564C7.1195 9.5342 6.87524 9.72202 6.52811 9.93372C5.7404 10.4339 5.01861 11.0261 4.3503 11.6988C4.22548 11.8229 4.22548 11.8229 4.03359 11.9836C2.62725 13.3399 1.89595 15.516 1.78187 17.5033C1.72417 19.126 1.7439 20.905 2.4711 22.3722C2.5072 22.4479 2.5433 22.5237 2.5805 22.6017C2.94757 23.3492 3.40371 23.95 4.06468 24.4188C4.36487 24.6378 4.63867 24.892 4.9147 25.1447C4.96413 25.1896 5.01356 25.2345 5.06449 25.2808C5.44811 25.6406 5.79286 26.0348 6.13473 26.4399C6.40101 26.753 6.68335 27.0326 6.98237 27.3087C7.11261 27.4343 7.24142 27.5615 7.37006 27.6891C7.40103 27.7196 7.43201 27.7501 7.46392 27.7815C8.03386 28.3456 8.03386 28.3456 8.11802 28.6231C8.11019 28.864 8.11019 28.864 7.98488 29.0965C7.79691 29.2698 7.79691 29.2698 7.60013 29.2996C7.28766 29.261 7.07803 29.1359 6.81006 28.9654C6.76026 28.9345 6.71045 28.9036 6.65913 28.8718C5.99448 28.4532 5.41313 27.9461 4.83222 27.4058C4.72552 27.3076 4.61769 27.211 4.50939 27.1148C4.171 26.8132 3.84976 26.5136 3.56954 26.1467C3.4728 26.0228 3.3703 25.9121 3.26214 25.7998C3.02718 25.5502 2.82234 25.2782 2.61623 25.0008C2.52311 24.8762 2.42842 24.7529 2.33183 24.6315C0.839805 22.7429 -0.0010837 20.2568 7.6883e-05 17.7865C5.16418e-05 17.7314 2.64004e-05 17.6763 3.94137e-07 17.6196C0.00361615 16.2471 0.189762 15.0453 0.842025 13.8516C0.876836 13.7847 0.911647 13.7178 0.947513 13.6488C2.16356 11.433 4.54163 10.4169 6.62366 9.42744C7.13701 9.18322 7.13701 9.18322 7.20558 9.18141Z" fill="white"/>
<path d="M21.1364 17.1145C21.2738 17.35 21.2566 17.5752 21.2054 17.8414C20.9853 18.349 20.6532 18.7592 20.2656 19.1263C20.2338 19.1573 20.2021 19.1883 20.1694 19.2203C19.5993 19.7175 18.7758 19.9297 18.0726 20.073C18.016 20.0853 17.9593 20.0976 17.901 20.1102C17.3379 20.2228 16.7676 20.2721 16.1976 20.3253C16.0754 20.3368 15.9533 20.3487 15.8311 20.361C14.5006 20.4943 13.1724 20.5053 11.8372 20.5154C11.3717 20.519 10.9063 20.5234 10.4408 20.5282C10.2798 20.5297 10.1189 20.5308 9.95788 20.5319C9.85952 20.5328 9.76116 20.5337 9.66281 20.5346C9.61877 20.5348 9.57474 20.535 9.52937 20.5352C9.27959 20.538 9.04484 20.5655 8.7994 20.614C8.51594 20.6282 8.23254 20.6294 7.94882 20.6302C7.81379 20.6309 7.67883 20.633 7.54382 20.6351C7.05927 20.639 6.62382 20.6083 6.16782 20.4111C6.54423 19.904 7.71416 19.9179 8.29155 19.8241C8.45047 19.7983 8.60934 19.7721 8.76819 19.7458C9.4503 19.6335 10.1332 19.5319 10.8175 19.4363C11.9604 19.2741 13.0691 19.0177 14.1879 18.7205C14.3722 18.6723 14.5566 18.6244 14.741 18.5768C14.8437 18.5503 14.9463 18.5235 15.0489 18.4964C15.3491 18.418 15.6505 18.35 15.9535 18.2855C16.4257 18.1846 16.895 18.0732 17.3638 17.9555C17.4245 17.9403 17.4245 17.9403 17.4864 17.9248C18.0979 17.771 18.699 17.5932 19.2985 17.3921C19.5734 17.3002 19.8498 17.2172 20.1285 17.1398C20.2051 17.1184 20.2818 17.0969 20.3608 17.0748C20.9189 16.9599 20.9189 16.9599 21.1364 17.1145Z" fill="white"/>
<path d="M4.10016 16.6918C4.29474 16.6918 4.37288 16.7283 4.53875 16.8271C4.45067 17.031 4.34695 17.2054 4.22156 17.385C4.18852 17.4327 4.15549 17.4805 4.12145 17.5297C4.09375 17.5656 4.06607 17.6015 4.03752 17.6385C4.01685 17.6385 3.99617 17.6385 3.97487 17.6385C3.959 17.296 4.01646 17.0193 4.10016 16.6918Z" fill="white"/>
<path d="M6.9197 20.2082C6.85767 20.2417 6.85767 20.2417 6.79439 20.2759C6.77371 20.3651 6.75303 20.4544 6.73173 20.5464C6.45259 20.4794 6.45259 20.4794 6.16782 20.4111C6.43055 20.1275 6.56557 20.1127 6.9197 20.2082Z" fill="white"/>
<path d="M7.35831 9.18564C7.25493 9.31953 7.15153 9.45342 7.04501 9.59137C6.88994 9.52443 6.88994 9.52443 6.73173 9.45613C6.94544 9.24524 7.06484 9.14944 7.35831 9.18564Z" fill="white"/>
<path d="M6.98235 9.52374C6.89965 9.613 6.81694 9.70227 6.73173 9.79423C6.58699 9.7496 6.44226 9.70497 6.29313 9.65899C6.51885 9.41538 6.68831 9.46027 6.98235 9.52374ZM6.66907 9.52374C6.62772 9.56837 6.58637 9.613 6.54376 9.65899C6.62647 9.63667 6.70917 9.61436 6.79439 9.59136C6.75303 9.56905 6.71168 9.54673 6.66907 9.52374Z" fill="white"/>
<path d="M2.90968 11.4848C2.97171 11.5071 3.03374 11.5295 3.09765 11.5525C2.93099 11.7852 2.72779 11.8226 2.47108 11.8906C2.7687 11.5609 2.7687 11.5609 2.90968 11.4848Z" fill="white"/>
</svg>
