<svg width="46" height="47" viewBox="0 0 46 47" fill="none" xmlns="http://www.w3.org/2000/svg">
<g clip-path="url(#clip0_2849_2856)">
<g filter="url(#filter0_d_2849_2856)">
<path fill-rule="evenodd" clip-rule="evenodd" d="M22.9904 9.87012C15.5514 9.87012 9.521 15.9006 9.521 23.3395C9.521 30.7784 15.5514 36.8089 22.9904 36.8089C30.4293 36.8089 36.4598 30.7784 36.4598 23.3395C36.4598 15.9006 30.4293 9.87012 22.9904 9.87012ZM29.3664 18.8002C29.8446 19.2784 29.8446 20.0537 29.3664 20.5319L22.0195 27.8788C21.5413 28.357 20.766 28.357 20.2878 27.8788L17.2266 24.8176C16.7484 24.3394 16.7484 23.5641 17.2266 23.0859C17.7048 22.6077 18.4801 22.6077 18.9583 23.0859L21.1536 25.2813L27.6347 18.8002C28.1129 18.322 28.8882 18.322 29.3664 18.8002Z" fill="white"/>
<path fill-rule="evenodd" clip-rule="evenodd" d="M22.9904 9.87012C15.5514 9.87012 9.521 15.9006 9.521 23.3395C9.521 30.7784 15.5514 36.8089 22.9904 36.8089C30.4293 36.8089 36.4598 30.7784 36.4598 23.3395C36.4598 15.9006 30.4293 9.87012 22.9904 9.87012ZM29.3664 18.8002C29.8446 19.2784 29.8446 20.0537 29.3664 20.5319L22.0195 27.8788C21.5413 28.357 20.766 28.357 20.2878 27.8788L17.2266 24.8176C16.7484 24.3394 16.7484 23.5641 17.2266 23.0859C17.7048 22.6077 18.4801 22.6077 18.9583 23.0859L21.1536 25.2813L27.6347 18.8002C28.1129 18.322 28.8882 18.322 29.3664 18.8002Z" fill="url(#paint0_linear_2849_2856)"/>
<path fill-rule="evenodd" clip-rule="evenodd" d="M22.9904 9.87012C15.5514 9.87012 9.521 15.9006 9.521 23.3395C9.521 30.7784 15.5514 36.8089 22.9904 36.8089C30.4293 36.8089 36.4598 30.7784 36.4598 23.3395C36.4598 15.9006 30.4293 9.87012 22.9904 9.87012ZM29.3664 18.8002C29.8446 19.2784 29.8446 20.0537 29.3664 20.5319L22.0195 27.8788C21.5413 28.357 20.766 28.357 20.2878 27.8788L17.2266 24.8176C16.7484 24.3394 16.7484 23.5641 17.2266 23.0859C17.7048 22.6077 18.4801 22.6077 18.9583 23.0859L21.1536 25.2813L27.6347 18.8002C28.1129 18.322 28.8882 18.322 29.3664 18.8002Z" fill="url(#paint1_linear_2849_2856)"/>
</g>
<g opacity="0.25">
<circle cx="22.9897" cy="23.3398" r="20.7551" stroke="white" stroke-width="0.122449"/>
<circle cx="22.9897" cy="23.3398" r="20.7551" stroke="url(#paint2_linear_2849_2856)" stroke-width="0.122449"/>
</g>
<g opacity="0.6">
<circle cx="22.9899" cy="23.34" r="18.2143" stroke="white" stroke-width="0.306122"/>
<circle cx="22.9899" cy="23.34" r="18.2143" stroke="url(#paint3_linear_2849_2856)" stroke-width="0.306122"/>
</g>
<g opacity="0.8">
<circle cx="22.9901" cy="23.3402" r="15.6735" stroke="white" stroke-width="0.489796"/>
<circle cx="22.9901" cy="23.3402" r="15.6735" stroke="url(#paint4_linear_2849_2856)" stroke-width="0.489796"/>
</g>
</g>
<defs>
<filter id="filter0_d_2849_2856" x="-16.1934" y="-3.59939" width="78.3673" height="78.3673" filterUnits="userSpaceOnUse" color-interpolation-filters="sRGB">
<feFlood flood-opacity="0" result="BackgroundImageFix"/>
<feColorMatrix in="SourceAlpha" type="matrix" values="0 0 0 0 0 0 0 0 0 0 0 0 0 0 0 0 0 0 127 0" result="hardAlpha"/>
<feOffset dy="12.2449"/>
<feGaussianBlur stdDeviation="12.2449"/>
<feComposite in2="hardAlpha" operator="out"/>
<feColorMatrix type="matrix" values="0 0 0 0 0 0 0 0 0 0 0 0 0 0 0 0 0 0 0.08 0"/>
<feBlend mode="normal" in2="BackgroundImageFix" result="effect1_dropShadow_2849_2856"/>
<feBlend mode="normal" in="SourceGraphic" in2="effect1_dropShadow_2849_2856" result="shape"/>
</filter>
<linearGradient id="paint0_linear_2849_2856" x1="22.9904" y1="9.87012" x2="22.9904" y2="36.8089" gradientUnits="userSpaceOnUse">
<stop stop-color="#EFB63A"/>
<stop offset="1" stop-color="#EFCC3A"/>
</linearGradient>
<linearGradient id="paint1_linear_2849_2856" x1="22.9904" y1="9.87012" x2="22.9904" y2="36.8089" gradientUnits="userSpaceOnUse">
<stop stop-color="#EAC332"/>
<stop offset="1" stop-color="#EAAF14"/>
</linearGradient>
<linearGradient id="paint2_linear_2849_2856" x1="22.9897" y1="2.52344" x2="22.9897" y2="44.1561" gradientUnits="userSpaceOnUse">
<stop stop-color="#EAC332"/>
<stop offset="1" stop-color="#EAAF14"/>
</linearGradient>
<linearGradient id="paint3_linear_2849_2856" x1="22.9899" y1="4.97266" x2="22.9899" y2="41.7074" gradientUnits="userSpaceOnUse">
<stop stop-color="#EAC332"/>
<stop offset="1" stop-color="#EAAF14"/>
</linearGradient>
<linearGradient id="paint4_linear_2849_2856" x1="22.9901" y1="7.42188" x2="22.9901" y2="39.2586" gradientUnits="userSpaceOnUse">
<stop stop-color="#EAC332"/>
<stop offset="1" stop-color="#EAAF14"/>
</linearGradient>
<clipPath id="clip0_2849_2856">
<rect width="46" height="47" fill="white"/>
</clipPath>
</defs>
</svg>
